<?xml version="1.0" standalone="no"?>
<!DOCTYPE svg PUBLIC "-//W3C//DTD SVG 20010904//EN"
 "http://www.w3.org/TR/2001/REC-SVG-20010904/DTD/svg10.dtd">
<svg version="1.0" xmlns="http://www.w3.org/2000/svg"
 width="24.000000pt" height="24.000000pt" viewBox="0 0 24.000000 24.000000"
 preserveAspectRatio="xMidYMid meet">

<g transform="translate(0.000000,24.000000) scale(0.100000,-0.100000)"
fill="#000000" stroke="none">
<path d="M0 202 c0 -5 13 -21 30 -37 17 -16 30 -36 30 -45 0 -9 -13 -29 -30
-45 -37 -36 -38 -45 -2 -45 30 0 102 64 102 91 0 26 -73 89 -103 89 -15 0 -27
-4 -27 -8z"/>
<path d="M110 198 c0 -7 14 -27 32 -45 l32 -33 -32 -33 c-39 -40 -41 -57 -4
-57 19 1 37 13 65 45 l38 45 -38 45 c-28 32 -46 44 -65 45 -16 0 -28 -5 -28
-12z"/>
</g>
</svg>
